<?xml version="1.0" encoding="utf-8"?>
<!-- Generator: Adobe Illustrator 21.1.0, SVG Export Plug-In . SVG Version: 6.00 Build 0)  -->
<svg version="1.1" id="Ebene_1" xmlns="http://www.w3.org/2000/svg" xmlns:xlink="http://www.w3.org/1999/xlink" x="0px" y="0px"
	 viewBox="0 0 500 500" style="enable-background:new 0 0 500 500;" xml:space="preserve">
<style type="text/css">
	.st0{fill:#8000b2;}
</style>
<g id="Ebene_1_1_">
</g>
<g id="Ebene_2">
	<path class="st0" d="M419.7,210.6c-28-67.4-92.4-111.3-165.1-113.1V87.1c0-0.5-0.1-1-0.3-1.5c4.2-1.7,7.1-5.8,7.1-10.6
		c0-6.4-5.2-11.5-11.5-11.5c-6.4,0-11.5,5.2-11.5,11.5c0,4.8,3,8.9,7.1,10.7c-0.2,0.5-0.3,0.9-0.3,1.5v10.4
		c-73,1.8-137.6,46.1-165.5,114c-0.6,1.5-0.4,3.1,0.4,4.4c0.9,1.3,2.3,2.1,3.9,2.1h0.4v213.8c0,2.6,2.1,4.7,4.7,4.7h124
		c2.6,0,4.7-2.1,4.7-4.7V296.2c0-17.6,14.3-31.9,31.9-31.9s31.9,14.3,31.9,31.9v135.6c0,2.6,2.1,4.7,4.7,4.7h124.1
		c2.6,0,4.7-2.1,4.7-4.7V218h0.4h0.1c2.6,0,4.7-2.1,4.7-4.7C420.6,212.3,420.3,211.4,419.7,210.6z M408.6,208.6H391l11.7-11.5
		C404.8,200.8,406.8,204.7,408.6,208.6z M386.4,172.6c4.1,5.1,7.9,10.5,11.4,16.1l-20.1,19.9h-27.3L386.4,172.6z M380.4,165.3
		l-43.3,43.3h-27.4l57-57.1C371.4,155.8,376,160.4,380.4,165.3z M359.4,145.4l-63.1,63.2h-2.7l-13.9-11l63.9-63.7
		C349.1,137.4,354.3,141.3,359.4,145.4z M335.2,128.9l-62.9,62.8l-15.3-12l59.6-59.7C323,122.6,329.2,125.6,335.2,128.9z
		 M306.9,116.3l-60.4,60.6l-40.1,31.7h-19.1l98.4-98.1C292.9,112,300,114,306.9,116.3z M173.9,208.6h-27.5l101.9-101.8
		c0.6,0,1.1-0.1,1.7-0.1c8.2,0,16.3,0.6,24.3,1.7L173.9,208.6z M234.2,107.5L133,208.6h-27.3l94.8-94.7
		C211.3,110.7,222.6,108.6,234.2,107.5z M179.3,121.7l-87,86.9h-1C109.4,169,141,138.6,179.3,121.7z M176.7,427.1h-47.8V288.2
		c0-13.2,10.7-23.9,23.9-23.9s23.9,10.7,23.9,23.9L176.7,427.1L176.7,427.1z M371,427.1h-47.8V288.2c0-13.2,10.7-23.9,23.9-23.9
		c13.2,0,23.9,10.7,23.9,23.9V427.1z M380.4,427.1V288.2c0-18.4-14.9-33.3-33.3-33.3s-33.3,14.9-33.3,33.3v138.9h-22.5V296.2
		c0-22.8-18.6-41.4-41.4-41.4s-41.4,18.6-41.4,41.4V427h-22.4V288.2c0-18.4-14.9-33.3-33.3-33.3s-33.3,14.9-33.3,33.3v138.9H94
		V239.4h312v187.7L380.4,427.1L380.4,427.1z M405.9,230H94v-12h114c1.1,0,2.1-0.4,2.9-1l39.1-30.9l39,30.9c0.8,0.7,1.9,1,2.9,1h114
		V230z"/>
</g>
</svg>
